<svg width="1144" height="2322" viewBox="0 0 1144 2322" fill="none" xmlns="http://www.w3.org/2000/svg">
<path d="M457.674 -29.7622C394.648 20.3371 328.652 73.3658 296.449 150.965C268.506 218.3 272.526 300.509 327.822 352.073C353.994 376.478 385.007 385.05 419.7 385.452C441.873 385.71 464.825 384.266 485.887 392.766C502.668 399.542 516.54 412.054 528.671 425.495C551.923 451.241 570.515 480.937 597.918 502.505C627.03 525.415 661.484 539.474 696.217 550.531C730.95 561.589 768.044 569.16 802.607 582.518C832.29 593.988 859.233 611.41 881.965 634.216C894.806 647.109 906.327 661.365 916.828 676.321C927.689 691.793 940.4 708.627 946.461 726.823C959.172 764.957 940.791 806.072 917.158 835.211C863.833 900.958 775.635 914.44 697.517 921.258C606.938 929.159 515.21 923.403 426.291 903.888C342.673 885.538 260.055 850.354 173.117 856.481C102.28 861.473 32.0131 897.761 7.0407 970.285C-15.0714 1034.5 17.1317 1096.38 71.9769 1128.6C137.413 1167.03 211.27 1161.56 283.477 1154.77C329.302 1150.45 376.026 1146.33 421.521 1155.88C464.725 1164.95 504.879 1184.47 544.102 1204.65C585.916 1226.16 627.6 1247.92 669.354 1269.56C708.818 1290.01 749.422 1309.05 787.846 1331.51C805.968 1342.09 822.779 1355.02 833.78 1373.63C843.301 1389.74 848.132 1408.21 850.872 1426.74C856.332 1463.64 854.312 1501.26 859.403 1538.25C869.574 1612.17 898.696 1683.6 942.161 1743.25C963.223 1772.16 987.525 1798.48 1015.08 1820.88C1041.52 1842.39 1074.25 1856.05 1095.99 1883.16C1142.49 1941.18 1139.81 2024.42 1109.29 2089.19C1037.26 2242.05 857.182 2302.49 792.716 2461.15C778.565 2495.98 771.584 2533.36 774.905 2571.1C775.595 2578.97 787.606 2579.04 786.906 2571.1C779.315 2484.74 826.93 2407.4 883.775 2348.56C941.561 2288.74 1010.62 2241.41 1064.88 2177.83C1111.14 2123.63 1148.38 2055.27 1143.58 1980.87C1141.54 1949.31 1132.75 1917.81 1116.23 1891C1108.21 1877.98 1098.36 1866.03 1086.82 1856.18C1074.55 1845.69 1060.26 1838.56 1047.01 1829.53C985.735 1787.81 937.86 1726.75 906.767 1658.48C890.886 1623.62 879.475 1586.53 873.044 1548.58C866.673 1510.93 868.184 1472.78 863.913 1434.94C860.043 1400.68 850.122 1366.97 824.679 1343.12C795.306 1315.57 754.713 1299.99 719.669 1281.82C677.605 1260.02 635.541 1238.22 593.487 1216.42C555.303 1196.62 517.38 1175.67 477.356 1160.04C437.062 1144.3 395.638 1137.04 352.574 1137.76C307.88 1138.5 263.575 1145.57 218.941 1147.44C153.375 1150.21 75.4773 1136.49 33.3432 1078.68C-13.6013 1014.28 23.7823 928.633 86.7084 893.233C165.256 849.054 258.755 871.788 339.953 894.274C425.471 917.968 510.979 935.008 599.788 936.854C644.312 937.782 688.896 935.441 733.091 929.819C770.294 925.085 807.698 918.339 842.661 903.929C902.357 879.328 967.073 819.347 962.363 746.689C960.132 712.341 937.08 682.541 917.198 656.424C898.226 631.513 875.994 609.285 849.802 592.554C789.306 553.925 714.989 550.088 650.773 520.175C616.509 504.207 589.477 481.339 565.654 451.581C544.902 425.66 524.5 396.871 493.808 382.853C456.694 365.906 415.37 379.728 377.376 367.773C342.563 356.818 315.79 326.823 301.909 292.866C268.446 211.007 313.93 122.516 369.036 64.0205C397.968 33.3028 430.901 7.02056 463.725 -19.076C469.755 -23.8725 463.785 -34.6309 457.664 -29.7622H457.674Z" fill="#48B5FF" fill-opacity="0.5"/>
</svg>
