<svg width="60" height="60" viewBox="0 0 60 60" fill="none" xmlns="http://www.w3.org/2000/svg">
<g id="ri:behance-fill">
<path id="Vector" d="M18.6075 13.375C20.205 13.375 21.6825 13.5 23.0325 13.87C24.385 14.1175 25.4925 14.6125 26.475 15.23C27.46 15.85 28.1975 16.715 28.6875 17.8275C29.18 18.94 29.4275 20.3025 29.4275 21.785C29.4275 23.5175 29.0575 25 28.1975 26.1125C27.46 27.2275 26.23 28.215 24.755 28.9575C26.845 29.5775 28.4425 30.69 29.4275 32.175C30.41 33.6575 31.025 35.5125 31.025 37.615C31.025 39.3475 30.655 40.83 30.04 42.0675C29.4275 43.305 28.4425 44.4175 27.335 45.16C26.1319 45.9558 24.8021 46.5408 23.4025 46.89C21.9275 47.2625 20.4525 47.51 18.9775 47.51H2.5V13.375H18.6075ZM17.6225 27.225C18.975 27.225 20.0825 26.855 20.9425 26.2375C21.8025 25.62 22.1725 24.505 22.1725 23.145C22.1725 22.4025 22.0475 21.6625 21.8025 21.1675C21.5575 20.6725 21.1875 20.3 20.6975 19.93C20.205 19.6825 19.7125 19.435 19.0975 19.3125C18.4825 19.1875 17.87 19.1875 17.13 19.1875H10V27.2275H17.625L17.6225 27.225ZM17.9925 41.82C18.73 41.82 19.4675 41.695 20.0825 41.5725C20.6975 41.4475 21.3125 41.2025 21.8025 40.83C22.3035 40.4681 22.7226 40.0047 23.0325 39.47C23.2775 38.8525 23.525 38.11 23.525 37.245C23.525 35.5125 23.0325 34.2775 22.05 33.41C21.065 32.6675 19.7125 32.2975 18.115 32.2975H10V41.8225L17.9925 41.82ZM41.7225 41.695C42.705 42.685 44.18 43.18 46.1475 43.18C47.5 43.18 48.73 42.81 49.7125 42.1925C50.6975 41.45 51.3125 40.7075 51.5575 39.9675H57.5825C56.5975 42.9325 55.1225 45.035 53.1575 46.3975C51.1875 47.6325 48.8525 48.375 46.025 48.375C44.2159 48.3806 42.422 48.0447 40.7375 47.385C39.2217 46.8166 37.8699 45.8822 36.8025 44.665C35.6607 43.5264 34.8168 42.1244 34.345 40.5825C33.73 38.975 33.4825 37.245 33.4825 35.265C33.4825 33.41 33.73 31.68 34.345 30.07C34.9373 28.5209 35.8131 27.0958 36.9275 25.8675C38.0503 24.7146 39.3857 23.7901 40.86 23.145C42.5018 22.4852 44.2556 22.149 46.025 22.155C48.115 22.155 49.96 22.5275 51.5575 23.3925C53.1575 24.2575 54.385 25.2475 55.3675 26.7325C56.3525 28.0925 57.0925 29.7 57.5825 31.4325C57.8275 33.1625 57.95 34.895 57.8275 36.8725H40C40 38.8525 40.7375 40.7075 41.7225 41.6975V41.695ZM49.4675 28.71C48.6075 27.845 47.255 27.35 45.655 27.35C44.55 27.35 43.6875 27.6 42.95 27.97C42.2125 28.34 41.7225 28.835 41.23 29.33C40.7775 29.8082 40.4781 30.4106 40.37 31.06C40.245 31.68 40.1225 32.175 40.1225 32.6675H51.1875C50.9425 30.8125 50.3275 29.5775 49.4675 28.71ZM38.6475 15.725H52.4175V19.065H38.65V15.725H38.6475Z" fill="white"/>
</g>
</svg>
